# xmcd
#
# Track frame offsets:
#	150
#	16957
#	29952
#	46005
#	59567
#	75631
#	98741
#	112609
#	132300
#	146933
#	157989
#	174255
#	191774
#	205519
#	217145
#	233524
#	248554
#	263899
#	281429
#	295998
#
# Disc length: 4139 seconds
#
# Revision: 1
# Processed by: cddbd v1.5.1PL2 Copyright (c) Steve Scherf et al.
# Submitted via: audiograbber 1.82.02
#
DISCID=1a102914
DTITLE=Various Artist - Музыкайф 2
DYEAR=2003
DGENRE=Dance, Pop
TTITLE0=Дискотека Авария - Небо
TTITLE1=Earphone - Primetime-Sexcrime
TTITLE2=In-Grid - In-Tango
TTITLE3=Тату - Не верь, не бойся
TTITLE4=Scooter - Weekend
TTITLE5=Modern Talking - TV Makes The Superstar
TTITLE6=Отпетый Мошенники - Обратите внимание
TTITLE7=Bob Sinclar - Kiss my Eyes
TTITLE8=Panjabi MC - Jogi
TTITLE9=Пропаганда - Шум дождя
TTITLE10=Жасмин - 100%
TTITLE11=Gareth Gates - I've Got No (Self Control)
TTITLE12=Dj Bobo - Chihuahua
TTITLE13=Глюкоза - Невеста
TTITLE14=Sting - Send your love
TTITLE15=Sonique - Can't Make Up My Mind
TTITLE16=Чай Вдвоем - Желанная
TTITLE17=Girls Alound - Life Got Gold
TTITLE18=Дмитрий Маликов - Мама Лето
TTITLE19=Ace of Base - Unspeakable
EXTD=(c) Cool
EXTT0=
EXTT1=
EXTT2=
EXTT3=
EXTT4=
EXTT5=
EXTT6=
EXTT7=
EXTT8=
EXTT9=
EXTT10=
EXTT11=
EXTT12=
EXTT13=
EXTT14=
EXTT15=
EXTT16=
EXTT17=
EXTT18=
EXTT19=
PLAYORDER=
